<svg xmlns:xlink="http://www.w3.org/1999/xlink" data-icon="netlify" viewBox="0 0 64 56" fill="none" xmlns="http://www.w3.org/2000/svg" width="64"  height="56" >
<path d="M35.9844 32.8064H28.0101L27.3492 32.1231V23.877L28.0101 23.1936H35.9844L36.6452 23.877V32.1231L35.9844 32.8064Z" fill="#FFFFFF"></path>
<path d="M19.3916 45.233H18.7141L15.3322 41.7359V41.041L20.5022 35.6891L24.084 35.6948L24.5616 36.1829V39.8868L19.3916 45.233Z" fill="#FFFFFF"></path>
<path d="M15.3322 14.9647V14.2642L18.7141 10.767H19.3916L24.5616 16.1132V19.8113L24.084 20.3109H20.5022L15.3322 14.9647Z" fill="#FFFFFF"></path>
<path d="M20.0913 30.9746H0.410933L0 30.5496V25.4504L0.410933 25.0254H20.0913L20.5022 25.4504V30.5496L20.0913 30.9746Z" fill="#FFFFFF"></path>
<path d="M63.5891 30.9746H43.9087L43.4978 30.5496V25.4504L43.9087 25.0254H63.5891L64 25.4504V30.5496L63.5891 30.9746Z" fill="#FFFFFF"></path>
<path d="M29.1263 15.6883V0.424938L29.5372 0H34.4684L34.8793 0.424938V15.6883L34.4684 16.1132H29.5372L29.1263 15.6883Z" fill="#FFFFFF"></path>
<path d="M29.1263 55.5751V40.3117L29.5372 39.8868H34.4684L34.8793 40.3117V55.5751L34.4684 56H29.5372L29.1263 55.5751Z" fill="#FFFFFF"></path>
<path d="M36.6452 32.1231L35.9844 32.8064H28.0101L27.3492 32.1231V23.877L28.0101 23.1936H35.9844L36.6452 23.877V32.1231ZM35.0452 24.7936H28.9492V31.2064H35.0452V24.7936ZM18.7141 45.233L15.3322 41.7359V41.041L20.5022 35.6891L24.084 35.6948L24.5616 36.1829V39.8868L19.3916 45.233H18.7141ZM22.9616 39.2397L19.0528 43.2816L17.2216 41.388L21.1802 37.2902L22.9616 37.293V39.2397ZM17.2193 14.6144L21.1807 18.7109H22.9616V16.7603L19.0528 12.7184L17.2193 14.6144ZM15.3322 14.2642L18.7141 10.767H19.3916L24.5616 16.1132V19.8113L24.084 20.3109H20.5022L15.3322 14.9647V14.2642ZM20.5022 30.5496L20.0913 30.9746H0.410933L0 30.5496V25.4504L0.410933 25.0254H20.0913L20.5022 25.4504V30.5496ZM18.9022 26.6254V29.3746H1.6V26.6254H18.9022ZM62.4 29.3746V26.6254H45.0978V29.3746H62.4ZM43.4978 30.5496V25.4504L43.9087 25.0254H63.5891L64 25.4504V30.5496L63.5891 30.9746H43.9087L43.4978 30.5496ZM30.7263 14.5132H33.2793V1.6H30.7263V14.5132ZM29.5372 0H34.4684L34.8793 0.424938V15.6883L34.4684 16.1132H29.5372L29.1263 15.6883V0.424938L29.5372 0ZM30.7263 54.4H33.2793V41.4868H30.7263V54.4ZM29.5372 39.8868H34.4684L34.8793 40.3117V55.5751L34.4684 56H29.5372L29.1263 55.5751V40.3117L29.5372 39.8868Z" fill="#FFFFFF"></path>
</svg>