<svg xmlns="http://www.w3.org/2000/svg" fill="none" viewBox="0 0 512 512" id="Axios--Streamline-Svg-Logos.svg" height="512" width="512"><desc>Axios Streamline Icon: https://streamlinehq.com</desc><path fill="#5A29E4" d="M254.15306666666666 228.4544v58.91199999999999l-6.4208 5.1712V243.53066666666666h-12.085866666666664l18.506666666666668 -15.076266666666665Zm222.68586666666664 -8.990933333333333c5.376533333333333 0 10.369066666666665 0.8106666666666666 14.977599999999999 2.432533333333333 4.4336 1.5312000000000001 8.2576 3.253333333333333 11.472533333333333 5.165333333333333l0.5610666666666666 0.3392 -6.656533333333333 12.6736c-0.6074666666666666 -0.49706666666666666 -1.4650666666666665 -1.0655999999999999 -2.5728 -1.7050666666666665l-0.6293333333333333 -0.3562666666666666 -0.6784 -0.3706666666666667 -0.7285333333333333 -0.38399999999999995c-2.048 -1.1098666666666666 -4.480533333333333 -2.0485333333333333 -7.2965333333333335 -2.816533333333333 -2.816533333333333 -0.8533333333333333 -5.7184 -1.2799999999999998 -8.7056 -1.2799999999999998 -8.0224 0 -12.0336 2.261333333333333 -12.0336 6.784533333333333 0 2.6458666666666666 1.4512 4.523199999999999 4.353066666666667 5.633066666666666l0.6607999999999999 0.23946666666666666 0.7029333333333333 0.2437333333333333 0.7445333333333333 0.24746666666666664 0.7861333333333334 0.2517333333333333 0.8282666666666666 0.2554666666666666 0.8698666666666666 0.2592c0.1488 0.043199999999999995 0.29866666666666664 0.08693333333333332 0.45066666666666666 0.13119999999999998l0.9328 0.2650666666666667 0.9743999999999999 0.2688 1.0165333333333333 0.2730666666666667 1.0581333333333331 0.2773333333333333 1.0997333333333332 0.2805333333333333 1.7285333333333333 0.42879999999999996 1.2042666666666666 0.29066666666666663c5.0352 1.2799999999999998 9.387733333333333 2.7312 13.0576 4.352533333333334 3.598933333333333 1.5541333333333331 6.3744 3.6176 8.326933333333333 6.1904l0.2501333333333333 0.33866666666666667c2.0485333333333333 2.6453333333333333 3.072533333333333 6.1445333333333325 3.072533333333333 10.497066666666665 0 5.2912 -1.3653333333333333 9.558933333333332 -4.096533333333333 12.8016 -2.6458666666666666 3.157866666666666 -6.145066666666666 5.4624 -10.497599999999998 6.9130666666666665 -4.352533333333334 1.3653333333333333 -9.046399999999998 2.0485333333333333 -14.081599999999998 2.0485333333333333 -5.803733333333334 0 -11.564266666666665 -0.8112 -17.282133333333334 -2.432533333333333 -5.4458666666666655 -1.5445333333333333 -10.311466666666666 -3.6304 -14.595733333333332 -6.258666666666667l-0.6384 -0.3984 6.912533333333333 -13.441600000000001c1.1098666666666666 1.1093333333333333 2.9445333333333332 2.3472 5.505066666666666 3.7125333333333335 2.6453333333333333 1.3653333333333333 5.717866666666667 2.5178666666666665 9.217066666666666 3.4565333333333332 3.4992 0.9386666666666665 7.211733333333333 1.408 11.137599999999999 1.408 7.851733333333333 0 11.7776 -2.0906666666666665 11.7776 -6.272533333333333 0 -2.816533333333333 -1.8352 -4.8224 -5.505066666666666 -6.017066666666667l-0.8821333333333332 -0.3098666666666666 -0.9263999999999999 -0.31466666666666665 -0.9712000000000001 -0.3194666666666667 -1.0149333333333332 -0.32426666666666665 -1.0597333333333332 -0.3296 -1.1034666666666666 -0.33386666666666664c-0.18773333333333334 -0.05653333333333333 -0.37706666666666666 -0.11253333333333333 -0.5685333333333333 -0.16906666666666664l-1.1696 -0.34186666666666665 -1.2144 -0.3466666666666667 -1.2581333333333333 -0.35146666666666665 -1.3029333333333333 -0.3562666666666666 -2.0368 -0.5439999999999999 -0.7013333333333334 -0.18346666666666667c-7.339733333333333 -1.877333333333333 -12.8016 -4.2672 -16.386133333333333 -7.169066666666667 -3.4992 -2.9872 -5.248533333333333 -7.2544 -5.248533333333333 -12.8016 0 -4.949866666666667 1.2373333333333334 -9.089599999999999 3.7119999999999997 -12.4176 2.5605333333333333 -3.328533333333333 5.9744 -5.8464 10.241599999999998 -7.553066666666666 4.352533333333334 -1.7071999999999998 9.089066666666666 -2.5605333333333333 14.210133333333333 -2.5605333333333333Zm-118.72 0.128c5.416 0 10.361066666666666 0.9866666666666666 14.8304 2.958933333333333l0.5344 0.24159999999999998c4.608533333333333 2.048 8.5344 4.821866666666667 11.7776 8.321066666666667 3.328533333333333 3.4138666666666664 5.885866666666666 7.297066666666667 7.6784 11.6496 1.792 4.352533333333334 2.690666666666666 8.7904 2.690666666666666 13.313600000000001 0 4.693866666666667 -0.9386666666666665 9.2176 -2.816 13.570133333333333 -1.8778666666666668 4.2672 -4.5264 8.107733333333332 -7.939733333333333 11.5216 -3.328533333333333 3.328533333333333 -7.2943999999999996 5.973866666666667 -11.902933333333332 7.9370666666666665 -4.609066666666666 1.9626666666666666 -9.644266666666667 2.944 -15.106133333333332 2.944 -5.633066666666666 0 -10.7536 -0.9813333333333333 -15.362133333333333 -2.944 -4.608533333333333 -2.0485333333333333 -8.579733333333333 -4.7791999999999994 -11.908266666666666 -8.193066666666667 -3.328533333333333 -3.4992 -5.888533333333333 -7.425066666666667 -7.681066666666666 -11.7776 -1.7893333333333334 -4.352533333333334 -2.6879999999999997 -8.833066666666666 -2.6879999999999997 -13.442133333333333 0 -4.693866666666667 0.9386666666666665 -9.217066666666666 2.816 -13.569599999999998 1.7925333333333333 -4.1546666666666665 4.286933333333333 -7.8431999999999995 7.478933333333334 -11.064533333333333l0.4608 -0.4570666666666666c3.4138666666666664 -3.4138666666666664 7.4224 -6.1024 12.030933333333332 -8.065066666666667 4.608533333333333 -1.9631999999999998 9.644266666666667 -2.9445333333333332 15.106133333333332 -2.9445333333333332Zm-308.8757866666666 0.38399999999999995 31.10832 71.5616h-16.386133333333333l-7.169066666666667 -16.770133333333334H29.01648l-7.168959999999999 16.770133333333334H5.333333333333333l31.236159999999998 -71.5616h12.673653333333334Zm91.63098666666667 0 19.714666666666666 25.34773333333333 19.714666666666666 -25.34773333333333h16.770133333333334l-28.291733333333333 36.22933333333333 27.395733333333332 35.33226666666666h-16.770133333333334l-18.818666666666665 -24.3232 -18.690133333333332 24.3232h-17.026666666666664l27.523733333333332 -35.33226666666666 -28.419733333333333 -36.22933333333333h16.898133333333334Zm125.02026666666666 -0.3274666666666667v47.885866666666665h12.424533333333333l-18.832 15.454933333333333v-58.879999999999995l6.407466666666666 -4.4608Zm91.97119999999998 13.769599999999999c-4.693866666666667 0 -8.707733333333334 1.1093333333333333 -12.036266666666666 3.328 -3.2432 2.2192 -5.7184 5.035733333333333 -7.425066666666667 8.4496 -1.7066666666666666 3.4138666666666664 -2.5605333333333333 6.955733333333333 -2.5605333333333333 10.625066666666665 0 3.840533333333333 0.8992 7.510399999999999 2.6912000000000003 11.009599999999999 1.7898666666666667 3.4138666666666664 4.3072 6.187733333333332 7.5504 8.321066666666667 3.328533333333333 2.1338666666666666 7.297066666666667 3.200533333333333 11.9056 3.200533333333333 4.693866666666667 0 8.6624 -1.1093333333333333 11.9056 -3.328533333333333 3.2458666666666667 -2.304 5.717866666666667 -5.1632 7.425066666666667 -8.577066666666667 1.7066666666666666 -3.4992 2.5626666666666664 -7.083733333333333 2.5626666666666664 -10.7536 0 -3.840533333333333 -0.896 -7.4677333333333324 -2.6879999999999997 -10.881599999999999 -1.7925333333333333 -3.413333333333333 -4.352533333333334 -6.1445333333333325 -7.6837333333333335 -8.193066666666667 -3.2432 -2.1333333333333333 -7.123733333333334 -3.1999999999999997 -11.646933333333333 -3.1999999999999997ZM42.97034666666667 238.79413333333332l-10.497386666666666 22.5312h20.61072l-10.113333333333333 -22.5312Z" stroke-width="1"></path></svg>